<svg viewBox="0 0 662 388" xmlns="http://www.w3.org/2000/svg">
  <g fill="#CF0000" fill-rule="evenodd">
    <path d="M4.361 175.224h60.705v15.323H19.808v18.177h34.564v15.558H19.808v20.2h45.258v15.324H4.361zM80.52 249.35c0-3.088.241-4.041 2.141-6.653l18.412-25.182-18.412-25.183c-1.9-2.617-2.141-3.564-2.141-6.653v-10.458h14.853v8.2c0 1.188 0 1.423.594 2.135l14.847 20.2 14.97-20.2c.595-.712.595-.947.595-2.135v-8.2h14.73v10.458c0 3.089-.118 4.036-2.024 6.653l-18.53 25.183 18.53 25.182c1.906 2.612 2.023 3.565 2.023 6.653v10.453h-14.73v-8.194c0-1.188 0-1.43-.593-2.141l-14.97-20.194-14.848 20.194c-.594.711-.594.953-.594 2.14v8.195H80.52V249.35zM176.515 190.548h-22.564v-15.324h60.7v15.324h-22.689v69.258h-15.447zM230.111 175.224h60.7v15.323h-45.265v18.177h34.576v15.558h-34.576v20.2h45.265v15.324h-60.7zM309.828 175.224h14.971l30.294 52.982v-52.982h15.441v84.582h-14.612l-30.647-54.412v54.412h-15.447zM389.315 239.965l14.5-3.8.706 2.253c1.194 3.924 2.97 6.06 6.535 6.06h17.223c3.447 0 6.3-2.966 6.3-6.53v-4.16c0-2.61-1.664-5.11-4.04-5.7l-26.724-7.246c-8.441-2.26-14.26-10.812-14.26-20.077v-3.923c0-12.47 9.148-21.618 21.619-21.618h16.629c11.523 0 20.906 8.553 22.335 19.718l-14.37 3.923-.718-2.259c-1.182-3.923-2.97-6.058-6.412-6.058h-17.223c-3.57 0-6.418 2.97-6.418 6.535v2.97c0 4.036 2.259 6.412 6.3 7.483l22.206 5.7c9.276 2.376 16.159 10.453 16.159 20.553v3.088c0 12.712-9.506 22.93-22.212 22.93h-15.559c-11.647 0-21.153-8.553-22.576-19.842M464.529 244.479h11.877V190.55h-11.877v-15.329h39.324v15.329h-11.882v53.929h11.882v15.324h-39.324zM558.386 244.48c3.56 0 6.53-2.971 6.53-6.536V197.08c0-3.564-2.97-6.529-6.53-6.529h-16.988c-3.564 0-6.417 2.965-6.417 6.53v40.864c0 3.565 2.853 6.535 6.417 6.535h16.988zm-38.729-7.248v-39.44c0-12.471 10.1-22.571 22.577-22.571h15.558c12.353 0 22.57 10.1 22.57 22.57v39.441c0 12.477-10.217 22.57-22.57 22.57h-15.558c-12.477 0-22.577-10.093-22.577-22.57zM600.566 175.224h14.977l30.288 52.982v-52.982h15.441v84.582h-14.611l-30.647-54.412v54.412h-15.448zM.559 367.833l14.5-3.8.706 2.253c1.194 3.923 2.97 6.059 6.535 6.059h17.224c3.447 0 6.3-2.965 6.3-6.53v-4.159c0-2.611-1.665-5.111-4.042-5.7L15.06 348.71C6.618 346.451.8 337.898.8 328.633v-3.924c0-12.47 9.147-21.617 21.618-21.617h16.63c11.523 0 20.905 8.553 22.334 19.717l-14.37 3.924-.718-2.259c-1.182-3.923-2.97-6.059-6.412-6.059H22.66c-3.57 0-6.418 2.97-6.418 6.536v2.97c0 4.035 2.259 6.412 6.294 7.483l22.212 5.7c9.277 2.376 16.159 10.452 16.159 20.552v3.089c0 12.711-9.506 22.93-22.212 22.93H23.135c-11.647 0-21.153-8.554-22.576-19.842M78.144 365.1v-39.44c0-12.471 10.1-22.571 22.57-22.571h15.683c11.518 0 20.906 8.553 22.447 19.723l-14.488 3.918-.835-2.259c-1.424-3.917-2.847-6.059-6.412-6.059h-17.23c-3.558 0-6.405 2.97-6.405 6.536v40.864c0 3.565 2.847 6.536 6.405 6.536h16.989c3.564 0 5.588-2.018 6.653-6.06l.594-2.258 14.5 3.8c-1.43 11.288-10.818 19.841-22.336 19.841h-15.564c-12.47 0-22.57-10.1-22.57-22.57M155.729 303.091h15.436v33.618h29.823v-33.618h15.441v84.583h-15.441V352.15h-29.823v35.524h-15.436zM275.373 372.347c3.559 0 6.53-2.97 6.53-6.535v-40.865c0-3.565-2.971-6.53-6.53-6.53h-16.988c-3.565 0-6.418 2.965-6.418 6.53v40.865c0 3.564 2.853 6.535 6.418 6.535h16.988zm-38.73-7.247v-39.441c0-12.47 10.1-22.57 22.577-22.57h15.559c12.353 0 22.57 10.1 22.57 22.57V365.1c0 12.47-10.217 22.57-22.57 22.57H259.22c-12.476 0-22.576-10.1-22.576-22.57zM353.909 372.347c3.559 0 6.53-2.97 6.53-6.535v-40.865c0-3.565-2.971-6.53-6.53-6.53H336.92c-3.565 0-6.418 2.965-6.418 6.53v40.865c0 3.564 2.853 6.535 6.418 6.535h16.988zm-38.73-7.247v-39.441c0-12.47 10.1-22.57 22.577-22.57h15.559c12.353 0 22.57 10.1 22.57 22.57V365.1c0 12.47-10.217 22.57-22.57 22.57h-15.56c-12.476 0-22.576-10.1-22.576-22.57zM396.088 303.091h15.447v69.259h41.1v15.324h-56.547zM4.202.984h92.512v23.353H27.738v27.7H80.42v23.712H27.738v30.776h68.976v23.353H4.202zM184.885 53.664a9.735 9.735 0 0 0 9.777-9.777v-9.594c0-5.43-4.347-9.959-9.777-9.959h-35.664v29.33h35.664zM125.685.98h58.112c18.83 0 34.4 15.388 34.4 34.4v7.424c0 18.823-15.57 34.394-34.4 34.394h-34.576v52.682h-23.536V.981zM241.737.984h92.512v23.353h-68.977v27.7h52.683v23.712h-52.683v54.129h-23.535zM356.884.984h23.535v105.541h62.635v23.353h-86.17z"/>
  </g>
</svg>
